<svg xmlns="http://www.w3.org/2000/svg" data-name="Layer 1" viewBox="0 0 32 32"><rect width="21" height="19" x="5.5" y="9.51" fill="#b18866"/><path fill="#6f6d75" d="M13.5,11.51h5a0,0,0,0,1,0,0V14a.5.5,0,0,1-.5.5H14a.5.5,0,0,1-.5-.5v-2.5A0,0,0,0,1,13.5,11.51Z"/><path fill="#8a6847" d="M6,.35H26a.5.5,0,0,1,.5.5V3.65a0,0,0,0,1,0,0H5.5a0,0,0,0,1,0,0V.85A.5.5,0,0,1,6,.35Z"/><rect width="2" height="3.29" x="15.5" y=".49" fill="#b18866"/><rect width="2" height="3.29" x="9.5" y=".49" fill="#b18866"/><rect width="2" height="3.29" x="21.5" y=".51" fill="#b18866"/><path fill="#58565d" d="M27.57,31.51H4.43A.5.5,0,0,1,4,30.73L5.5,28.51h21L28,30.73A.5.5,0,0,1,27.57,31.51Z"/><rect width="9" height="4" x="11.5" y="8.51" fill="#58565d" rx=".5"/><path fill="#8a8790" d="M11,26.51H21a.5.5,0,0,1,.5.5v1.5a0,0,0,0,1,0,0h-11a0,0,0,0,1,0,0V27A.5.5,0,0,1,11,26.51Z"/><circle cx="14.5" cy="15.51" r=".5" fill="#8a6847"/><circle cx="17.5" cy="18.51" r=".5" fill="#8a6847"/><circle cx="16.5" cy="20.51" r=".5" fill="#8a6847"/><circle cx="16.5" cy="15.51" r=".5" fill="#8a6847"/><circle cx="15.5" cy="17.51" r=".5" fill="#8a6847"/><circle cx="14.5" cy="19.51" r=".5" fill="#8a6847"/><rect width="25" height="5.92" x="3.5" y="3.59" fill="#8a8790" rx=".5"/><circle cx="24.5" cy="6.51" r="1" fill="#ec2d24"/><rect width="8" height="2" x="5.5" y="5.51" fill="#dfdfe1" rx=".5"/><rect width="2" height="2" x="19.5" y="5.51" fill="#dfdfe1" rx=".5"/><rect width="2" height="2" x="15.5" y="5.51" fill="#dfdfe1" rx=".5"/><path fill="#d8d7d9" d="M13.5,21.51h5a0,0,0,0,1,0,0v3a2,2,0,0,1-2,2h-1a2,2,0,0,1-2-2v-3A0,0,0,0,1,13.5,21.51Z"/><path d="M21,5H20a1,1,0,0,0-1,1V7a1,1,0,0,0,1,1h1a1,1,0,0,0,1-1V6A1,1,0,0,0,21,5Zm0,2.5V7H20V6h1V7h0ZM28,10a1,1,0,0,0,1-1V4.08a1,1,0,0,0-1-1H27A.24.24,0,0,0,27,3V1a1,1,0,0,0-1-1H6A1,1,0,0,0,5,1V3a.24.24,0,0,0,0,.08H4a1,1,0,0,0-1,1V9a1,1,0,0,0,1,1H5V28.35L3.08,31.22A.5.5,0,0,0,3.5,32h25a.5.5,0,0,0,.42-.78L27,28.35V10ZM24,1h2V3h0v.08h0V3H24ZM22,1h1V3H22ZM18,1h3V3H18ZM16,1h1V3H16ZM12,1h3V3H12ZM10,1h1V3H10ZM6,1H9V3H6ZM27.57,31H4.43l1.34-2H26.23ZM12,13h1v1a1,1,0,0,0,1,1h4a1,1,0,0,0,1-1V13h1a1,1,0,0,0,1-1V10h5V28H22V26.5a.5.5,0,0,0-.5-.5h-3A2.54,2.54,0,0,0,19,25h.55a1.5,1.5,0,0,0,0-3H19v-.5a.5.5,0,0,0-.5-.5h-5a.5.5,0,0,0-.5.5v3a2.53,2.53,0,0,0,.51,1.5h-3a.5.5,0,0,0-.5.5V28H6V10h5v2A1,1,0,0,0,12,13Zm8-1v0H12V10h8v2Zm-6,2V13h4v1h0v0Zm7,13v1H11V27Zm-7-2.5V22h4v2.5A1.5,1.5,0,0,1,16.5,26h-1A1.5,1.5,0,0,1,14,24.5Zm5-.5V23h.5a.5.5,0,0,1,0,1ZM4,9V4.08H28V9h0V9ZM24.5,5A1.5,1.5,0,1,0,26,6.5,1.5,1.5,0,0,0,24.5,5Zm0,2a.5.5,0,1,1,.5-.5A.5.5,0,0,1,24.5,7Zm-7,12a.5.5,0,1,0-.5-.5A.5.5,0,0,0,17.5,19ZM17,5H16a1,1,0,0,0-1,1V7a1,1,0,0,0,1,1h1a1,1,0,0,0,1-1V6A1,1,0,0,0,17,5Zm0,2.5V7H16V6h1V7h0ZM13,5H6A1,1,0,0,0,5,6V7A1,1,0,0,0,6,8h7a1,1,0,0,0,1-1V6A1,1,0,0,0,13,5Zm0,2.5V7H6V6h7V7h0ZM14.5,20a.5.5,0,1,0-.5-.5A.5.5,0,0,0,14.5,20ZM16,15.5a.5.5,0,1,0,.5-.5A.5.5,0,0,0,16,15.5ZM15.5,18a.5.5,0,1,0-.5-.5A.5.5,0,0,0,15.5,18ZM17,20.5a.5.5,0,1,0-.5.5A.5.5,0,0,0,17,20.5Zm-3-5a.5.5,0,1,0,.5-.5A.5.5,0,0,0,14,15.5Z"/></svg>