<?xml version="1.0" encoding="UTF-8"?><svg xmlns="http://www.w3.org/2000/svg" xmlns:xlink="http://www.w3.org/1999/xlink" version="1.1" id="Layer_1" x="0px" y="0px" viewBox="0 0 24 24" xml:space="preserve"><path fill="#303C42" d="M12 0C7.037 0 3 5.383 3 12s4.037 12 9 12 9-5.383 9-12-4.037-12-9-12z"/><path fill="#6D4C41" d="M12 23c-4.411 0-8-4.935-8-11S7.589 1 12 1s8 4.935 8 11-3.589 11-8 11z"/><path opacity="0.2" fill="#FFF" d="M5 12C5 5.935 8.14 1 12 1 7.589 1 4 5.935 4 12s3.589 11 8 11c-3.86 0-7-4.935-7-11z"/><path opacity="0.1" d="M12 1c3.86 0 7 4.935 7 11s-3.14 11-7 11c4.411 0 8-4.935 8-11S16.411 1 12 1z"/><path fill="#303C42" d="M12.5 2.5a.5.5 0 0 0-.916-.277C10.534 3.799 10 5.91 10 8.5c0 2.595.328 4.001.676 5.49.405 1.734.824 3.528.824 7.51a.5.5 0 0 0 .916.277C13.466 20.201 14 18.09 14 15.5c0-2.595-.328-4.001-.676-5.49-.405-1.734-.824-3.528-.824-7.51z"/><path fill="#6D4C41" d="M12.455 19.392c-.124-2.714-.482-4.246-.805-5.63-.335-1.43-.65-2.783-.65-5.262 0-1.479.183-2.78.545-3.892.124 2.714.482 4.246.805 5.63.335 1.43.65 2.783.65 5.262 0 1.479-.183 2.78-.545 3.892z"/><path opacity="0.15" d="M12.455 19.392c-.124-2.714-.482-4.246-.805-5.63-.335-1.43-.65-2.783-.65-5.262 0-1.479.183-2.78.545-3.892.124 2.714.482 4.246.805 5.63.335 1.43.65 2.783.65 5.262 0 1.479-.183 2.78-.545 3.892z"/><path opacity="0.1" d="M12.197 13.669c-.335-1.431-.65-2.783-.65-5.263 0-.708.044-1.374.128-2-.055-.538-.1-1.132-.13-1.798C11.183 5.72 11 7.02 11 8.5c0 2.48.315 3.832.65 5.263.323 1.383.681 2.915.805 5.63.189-.58.326-1.213.417-1.893-.168-1.657-.432-2.788-.675-3.831z"/><linearGradient id="SVGID_1_" gradientUnits="userSpaceOnUse" x1="3.2972381" y1="7.9418354" x2="20.7027626" y2="16.0581646"><stop offset="0" stop-color="#FFF" stop-opacity="0.2"/><stop offset="1" stop-color="#FFF" stop-opacity="0"/></linearGradient><path fill="url(#SVGID_1_)" d="M12 0C7.037 0 3 5.383 3 12s4.037 12 9 12 9-5.383 9-12-4.037-12-9-12z"/><metadata><rdf:RDF xmlns:rdf="http://www.w3.org/1999/02/22-rdf-syntax-ns#" xmlns:rdfs="http://www.w3.org/2000/01/rdf-schema#" xmlns:dc="http://purl.org/dc/elements/1.1/"><rdf:Description about="https://iconscout.com/legal#licenses" dc:title="coffee,bean,drink" dc:description="coffee,bean,drink" dc:publisher="Iconscout" dc:date="2017-08-16" dc:format="image/svg+xml" dc:language="en"><dc:creator><rdf:Bag><rdf:li>Those Icons</rdf:li></rdf:Bag></dc:creator></rdf:Description></rdf:RDF></metadata></svg>