<?xml version="1.0" encoding="iso-8859-1"?>
<!-- Generator: Adobe Illustrator 23.0.2, SVG Export Plug-In . SVG Version: 6.00 Build 0)  -->
<svg version="1.1" id="Layer_1" xmlns="http://www.w3.org/2000/svg" xmlns:xlink="http://www.w3.org/1999/xlink" x="0px" y="0px"
	 viewBox="0 0 1000 1000" style="enable-background:new 0 0 1000 1000;" xml:space="preserve">
<g id="XMLID_2_" style="opacity:0.15;">
	
		<line id="XMLID_73_" style="fill:none;stroke:#474747;stroke-width:6;stroke-linecap:round;stroke-linejoin:round;stroke-miterlimit:10;" x1="100.837" y1="714.723" x2="845.163" y2="714.723"/>
	<g id="XMLID_32_">
		
			<path id="XMLID_94_" style="fill:none;stroke:#474747;stroke-width:6;stroke-linecap:round;stroke-linejoin:round;stroke-miterlimit:10;" d="
			M196.152,498.233v-81.346c0-28.719,23.281-52,52-52h134.277c28.719,0,52,23.281,52,52v82.141"/>
		
			<path id="XMLID_88_" style="fill:none;stroke:#474747;stroke-width:6;stroke-linecap:round;stroke-linejoin:round;stroke-miterlimit:10;" d="
			M488.28,690.444h-64.871V514.233c0-8.837,7.163-16,16-16h32.871c8.837,0,16,7.163,16,16V690.444z"/>
		
			<rect id="XMLID_76_" x="423.409" y="690.444" style="fill:none;stroke:#474747;stroke-width:6;stroke-linecap:round;stroke-linejoin:round;stroke-miterlimit:10;" width="38.442" height="24.026"/>
		
			<rect id="XMLID_72_" x="168.429" y="690.444" style="fill:none;stroke:#474747;stroke-width:6;stroke-linecap:round;stroke-linejoin:round;stroke-miterlimit:10;" width="38.442" height="24.026"/>
		
			<path id="XMLID_70_" style="fill:none;stroke:#474747;stroke-width:6;stroke-linecap:round;stroke-linejoin:round;stroke-miterlimit:10;" d="
			M206.871,690.444H142V514.233c0-8.837,7.163-16,16-16h32.871c8.837,0,16,7.163,16,16V690.444z"/>
		
			<path id="XMLID_65_" style="fill:none;stroke:#474747;stroke-width:6;stroke-linecap:round;stroke-linejoin:round;stroke-miterlimit:10;" d="
			M207.172,638.788v-61.905c0-10.263,8.32-18.583,18.583-18.583h179.07c10.263,0,18.583,8.32,18.583,18.583v61.905H207.172z"/>
		
			<rect id="XMLID_64_" x="292.466" y="553.494" transform="matrix(-1.836970e-16 1 -1 -1.836970e-16 976.9033 346.3222)" style="fill:none;stroke:#474747;stroke-width:6;stroke-linecap:round;stroke-linejoin:round;stroke-miterlimit:10;" width="45.65" height="216.237"/>
		
			<circle id="XMLID_128_" style="fill:none;stroke:#313031;stroke-width:6;stroke-linecap:round;stroke-linejoin:round;stroke-miterlimit:10;" cx="315.291" cy="464.947" r="7.615"/>
	</g>
	
		<rect id="XMLID_86_" x="443.533" y="163.573" transform="matrix(-1.836970e-16 1 -1 -1.836970e-16 730.6628 -260.8179)" style="fill:none;stroke:#474747;stroke-width:6;stroke-linecap:round;stroke-linejoin:round;stroke-miterlimit:10;" width="104.414" height="142.699"/>
	
		<rect id="XMLID_84_" x="438.312" y="196.637" style="fill:none;stroke:#474747;stroke-width:6;stroke-linecap:round;stroke-linejoin:round;stroke-miterlimit:10;" width="114.855" height="76.57"/>
	
		<polygon id="XMLID_83_" style="fill:none;stroke:#474747;stroke-width:6;stroke-linecap:round;stroke-linejoin:round;stroke-miterlimit:10;" points="
		458.962,257.856 477.192,226.282 495.421,257.856 	"/>
	
		<polyline id="XMLID_82_" style="fill:none;stroke:#474747;stroke-width:6;stroke-linecap:round;stroke-linejoin:round;stroke-miterlimit:10;" points="
		486.306,242.069 498.435,221.061 519.679,257.856 495.421,257.856 	"/>
	
		<circle id="XMLID_81_" style="fill:none;stroke:#474747;stroke-width:6;stroke-linecap:round;stroke-linejoin:round;stroke-miterlimit:10;" cx="527.8" cy="218.161" r="8.121"/>
	
		<polyline id="XMLID_66_" style="fill:none;stroke:#474747;stroke-width:6;stroke-linecap:round;stroke-linejoin:round;stroke-miterlimit:10;" points="
		817.384,315.136 738.035,315.136 738.035,353.817 817.384,353.817 	"/>
	
		<line id="XMLID_63_" style="fill:none;stroke:#474747;stroke-width:6;stroke-linecap:round;stroke-linejoin:round;stroke-miterlimit:10;" x1="658.685" y1="353.817" x2="738.035" y2="353.817"/>
	
		<line id="XMLID_62_" style="fill:none;stroke:#474747;stroke-width:6;stroke-linecap:round;stroke-linejoin:round;stroke-miterlimit:10;" x1="738.035" y1="315.136" x2="707.651" y2="315.136"/>
	
		<rect id="XMLID_60_" x="698.36" y="353.817" transform="matrix(-1 -4.489665e-11 4.489665e-11 -1 1476.0692 746.3137)" style="fill:none;stroke:#474747;stroke-width:6;stroke-linecap:round;stroke-linejoin:round;stroke-miterlimit:10;" width="79.349" height="38.681"/>
	
		<polyline id="XMLID_56_" style="fill:none;stroke:#474747;stroke-width:6;stroke-linecap:round;stroke-linejoin:round;stroke-miterlimit:10;" points="
		805.043,392.683 738.035,392.683 738.035,431.364 763.709,431.364 	"/>
	
		<rect id="XMLID_53_" x="658.685" y="392.683" transform="matrix(-1 -4.490775e-11 4.490775e-11 -1 1396.72 824.0473)" style="fill:none;stroke:#474747;stroke-width:6;stroke-linecap:round;stroke-linejoin:round;stroke-miterlimit:10;" width="79.349" height="38.681"/>
</g>
<g id="XMLID_39_">
	<path id="XMLID_4_" style="fill:#EFAB59;" d="M705.481,406.885h-28.397l4.979,25.76l21.418-2.761
		c12.686,0,24.039,6.025,31.149,16.532c7.109,10.506,8.482,23.286,3.767,35.063l-31.862,77.772l6.546,33.863l44.026-109.944
		C771.737,446.638,744.834,406.885,705.481,406.885z"/>
	<path id="XMLID_55_" style="opacity:0.48;fill:#FDBA61;" d="M681.686,407.359c0,0,30.054-4.439,48.384,33.499
		c-12.221-8.188-25.784-13.626-48.006-8.212C677.084,406.885,681.686,407.359,681.686,407.359z"/>
	<polygon id="XMLID_52_" style="opacity:0.48;fill:#FDBA61;" points="719.116,527.737 721.949,570.971 712.552,590.378 
		704.12,558.299 	"/>
	
		<path id="XMLID_43_" style="fill:none;stroke:#474747;stroke-width:6;stroke-linecap:round;stroke-linejoin:round;stroke-miterlimit:10;" d="
		M705.481,406.885h-28.397l4.979,25.76l21.418-2.761c12.686,0,24.039,6.025,31.149,16.532c7.109,10.506,8.482,23.286,3.767,35.063
		l-31.862,77.772l6.546,33.863l44.026-109.944C771.737,446.638,744.834,406.885,705.481,406.885z"/>
	<path id="XMLID_40_" style="fill:#FDBA61;" d="M679.392,714.723H507.458c-31.35,0-55.176-24.611-49.959-51.605l53.212-275.289
		h165.428l53.212,275.289C734.568,690.112,710.742,714.723,679.392,714.723z"/>
	<path id="XMLID_41_" style="fill:#FDBA61;" d="M679.392,714.723H507.458c-31.35,0-55.176-24.611-49.959-51.605l53.212-275.289
		h165.428l53.212,275.289C734.568,690.112,710.742,714.723,679.392,714.723z"/>
	<path id="XMLID_42_" style="fill:#FDBA61;" d="M679.392,714.723H507.458c-31.35,0-55.176-24.611-49.959-51.605l53.212-275.289
		h165.428l53.212,275.289C734.568,690.112,710.742,714.723,679.392,714.723z"/>
	<path id="XMLID_48_" style="opacity:0.4;fill:#FDBA61;" d="M556.5,680.787l9.141-268.144l0.846-24.814h-55.776l-53.212,275.289
		c-5.218,26.994,18.608,51.605,49.959,51.605h103.316C581.779,714.723,555.877,699.065,556.5,680.787z"/>
	<path id="XMLID_46_" style="opacity:0.4;fill:#FDBA61;" d="M511.701,673.555l33.465-285.725h-34.455l-53.212,275.289
		c-5.218,26.994,18.608,51.605,49.959,51.605h59.355C535.463,714.723,509.134,695.471,511.701,673.555z"/>
	<rect id="XMLID_50_" x="510.615" y="389.83" style="opacity:0.7;fill:#FFCB92;" width="167.144" height="6.386"/>
	
		<path id="XMLID_3_" style="fill:none;stroke:#474747;stroke-width:6;stroke-linecap:round;stroke-linejoin:round;stroke-miterlimit:10;" d="
		M679.392,714.723H507.458c-31.35,0-55.176-24.611-49.959-51.605l53.212-275.289h165.428l53.212,275.289
		C734.568,690.112,710.742,714.723,679.392,714.723z"/>
	<path id="XMLID_44_" style="fill:#8C7B5F;" d="M676.234,387.83c-21.274-21.042-50.523-34.039-82.81-34.039
		s-61.535,12.997-82.81,34.039H676.234z"/>
	<path id="XMLID_49_" style="fill:#8C7B5F;" d="M676.234,387.83c-21.274-21.042-50.523-34.039-82.81-34.039
		s-61.535,12.997-82.81,34.039H676.234z"/>
	<path id="XMLID_54_" style="opacity:0.4;fill:#8C7B5F;" d="M510.615,387.83h165.619c-4.443-3.253-9.238-6.242-14.331-8.942
		l-52.299-3.904c-13.033-0.973-26.169-0.922-39.188,0.152l-45.471,3.751C519.853,381.587,515.058,384.577,510.615,387.83z"/>
	<g id="XMLID_47_" style="opacity:0.2;">
		<path style="fill:#FFFFFF;" d="M650.44,368.5c0.118,2.811-24.709-6.309-57.015-6.126c-32.306-0.183-57.133,8.937-57.015,6.126
			c-0.118-2.436,24.709-15.809,57.015-15.626C625.731,352.691,650.557,366.064,650.44,368.5z"/>
	</g>
	
		<path id="XMLID_7_" style="fill:none;stroke:#474747;stroke-width:6;stroke-linecap:round;stroke-linejoin:round;stroke-miterlimit:10;" d="
		M676.234,387.83c-21.274-21.042-50.523-34.039-82.81-34.039s-61.535,12.997-82.81,34.039H676.234z"/>
	<path id="XMLID_45_" style="fill:#FB9437;" d="M497.411,458.636l-36.168-61.248c-1.972-3.34,0.435-7.558,4.314-7.558h45.058
		L497.411,458.636z"/>
	<path id="XMLID_51_" style="opacity:0.3;fill:#FB9437;" d="M500.022,389.83l-4.382,22.836c-1.406,7.325-16.847,12.757-20.639,6.334
		l-11.447-21c-3.879,0-4.282-3.952-2.31-0.612l36.168,61.248l13.204-68.806H500.022z"/>
	<path id="XMLID_58_" style="opacity:0.7;fill:#FFCB92;" d="M461.243,394.451l1.704,1.765h45.663l2.004-6.386h-45.058
		C461.679,389.83,459.271,392.409,461.243,394.451z"/>
	
		<path id="XMLID_5_" style="fill:none;stroke:#474747;stroke-width:6;stroke-linecap:round;stroke-linejoin:round;stroke-miterlimit:10;" d="
		M497.411,458.636l-36.168-61.248c-1.972-3.34,0.435-7.558,4.314-7.558h45.058L497.411,458.636z"/>
	
		<path id="XMLID_6_" style="fill:none;stroke:#474747;stroke-width:6;stroke-linecap:round;stroke-linejoin:round;stroke-miterlimit:10;" d="
		M569.012,356.333v-12.07c0-13.483,10.93-24.413,24.413-24.413h0c13.483,0,24.413,10.93,24.413,24.413v12.07"/>
	
		<line id="XMLID_35_" style="fill:none;stroke:#474747;stroke-width:6;stroke-linecap:round;stroke-linejoin:round;stroke-miterlimit:10;" x1="652.78" y1="438.052" x2="684.303" y2="623"/>
	<path id="XMLID_57_" style="opacity:0.4;fill:#FDBA61;" d="M470.337,552.632l-21.618,105.921
		c-3.654,17.903,6.946,34.688,24.389,43.147c32.388-20.404,53.779-55.279,53.779-94.801v-54.267H470.337z"/>
</g>
<path id="XMLID_8_" style="fill:#FB9437;" d="M291.886,570.971c-27.173,0-49.201,22.028-49.201,49.201v0
	c0,27.173,22.028,49.201,49.201,49.201h0c27.173,0,49.201-22.028,49.201-49.201v-49.201H291.886z M313.458,620.172
	c0,11.914-9.658,21.571-21.571,21.571h0c-11.914,0-21.571-9.658-21.571-21.571v0c0-11.914,9.658-21.571,21.571-21.571h21.572
	V620.172z"/>
<path id="XMLID_22_" style="fill:#FB9437;" d="M291.886,570.971c-27.173,0-49.201,22.028-49.201,49.201v0
	c0,27.173,22.028,49.201,49.201,49.201h0c27.173,0,49.201-22.028,49.201-49.201v-49.201H291.886z M313.458,620.172
	c0,11.914-9.658,21.571-21.571,21.571h0c-11.914,0-21.571-9.658-21.571-21.571v0c0-11.914,9.658-21.571,21.571-21.571h21.572
	V620.172z"/>
<g id="XMLID_37_" style="opacity:0.4;">
	<path id="XMLID_38_" style="fill:#FB9437;" d="M247.323,624.998L247.323,624.998c0-27.173,22.028-49.201,49.201-49.201h43.564
		v-6.826h-49.201c-27.173,0-49.201,22.028-49.201,49.201v0c0,13.49,5.434,25.709,14.227,34.597
		C250.496,644.864,247.323,635.303,247.323,624.998z"/>
</g>
<path id="XMLID_31_" style="opacity:0.48;fill:#FDBA61;" d="M294.473,570.971c-0.507,0-3.596,0.023-4.099,0.038l11.087-0.038
	c-2.394,0-3.415,3.988-5.599,17.092c-0.876,5.255-9.964,5.131-14.711,8.517c-5.476,3.905-10.509,12.628-10.509,19.869l0.261-1.205
	c0,1.698-0.371-1.585,0,0c2.12-9.06,9.936-15.916,19.472-16.579v0.011c0.178-0.012,0.356-0.024,0.534-0.037
	c0.326-0.023,0.651-0.04,0.978-0.04l21.572,0v21.571c0,10.928-8.134,19.936-18.674,21.354c0.016,0.059,0.032,0.118,0.049,0.177
	c2.723,9.909-6.418,19.167-16.214,16.063c-18.937-5.999-33.883-24.387-35.687-42.522c-0.161,1.621-0.246,3.264-0.246,4.927v0
	c0,27.173,22.028,49.201,49.201,49.201h0c8.123,0,15.778-1.981,22.531-5.466c0.011-0.005,0.021-0.011,0.032-0.016
	c0.576-0.298,1.145-0.606,1.708-0.926c0.015-0.008,0.03-0.017,0.045-0.026c2.271-1.294,4.43-2.761,6.456-4.388
	c0.009-0.007,0.017-0.013,0.026-0.02c0.453-0.365,0.898-0.739,1.338-1.119c0.094-0.082,0.189-0.163,0.283-0.245
	c0.412-0.362,0.819-0.729,1.219-1.104c0.104-0.097,0.206-0.196,0.308-0.294c0.4-0.382,0.797-0.767,1.185-1.162
	c0.141-0.143,0.262-0.305,0.489-0.367c0.961-0.259,1.765-0.862,2.021-1.823c0.264-0.99,0.906-1.668,1.472-2.408
	c0.269-0.352,0.531-0.71,0.79-1.07c0.166-0.229,0.33-0.46,0.492-0.692c0.24-0.345,0.477-0.693,0.709-1.044
	c0.171-0.259,0.337-0.522,0.503-0.784c0.216-0.341,0.432-0.681,0.64-1.028c0.182-0.304,0.354-0.613,0.529-0.921
	c0.279-0.491,0.552-0.985,0.814-1.486c0.223-0.425,0.445-0.849,0.656-1.281c0.144-0.295,0.278-0.596,0.416-0.894
	c0.173-0.373,0.345-0.747,0.509-1.125c0.132-0.305,0.258-0.613,0.384-0.921c0.158-0.385,0.311-0.773,0.459-1.163
	c0.115-0.302,0.228-0.605,0.337-0.91c0.151-0.424,0.293-0.851,0.433-1.28c0.09-0.276,0.183-0.551,0.268-0.829
	c0.18-0.587,0.346-1.18,0.505-1.777c0.033-0.124,0.072-0.247,0.104-0.372c0.184-0.716,0.348-1.439,0.5-2.167
	c0.051-0.245,0.094-0.493,0.141-0.74c0.097-0.502,0.189-1.005,0.27-1.512c0.045-0.283,0.086-0.568,0.126-0.852
	c0.069-0.486,0.131-0.974,0.186-1.464c0.032-0.284,0.063-0.569,0.09-0.855c0.049-0.524,0.087-1.051,0.12-1.58
	c0.015-0.249,0.035-0.496,0.047-0.746c0.036-0.777,0.059-1.557,0.059-2.342v-9.854v-39.347H294.473z"/>
<path id="XMLID_20_" style="fill:none;stroke:#474747;stroke-width:6;stroke-linecap:round;stroke-linejoin:round;stroke-miterlimit:10;" d="
	M291.886,570.971c-27.173,0-49.201,22.028-49.201,49.201v0c0,27.173,22.028,49.201,49.201,49.201h0
	c27.173,0,49.201-22.028,49.201-49.201v-49.201H291.886z M313.458,620.172c0,11.914-9.658,21.571-21.571,21.571h0
	c-11.914,0-21.571-9.658-21.571-21.571v0c0-11.914,9.658-21.571,21.571-21.571h21.572V620.172z"/>
<path id="XMLID_11_" style="fill:#FDBA61;" d="M415.52,714.723L415.52,714.723c-58.623,0-106.147-47.523-106.147-106.147v-57.3
	h212.293v57.3C521.667,667.2,474.143,714.723,415.52,714.723z"/>
<g id="XMLID_29_" style="opacity:0.7;">
	
		<polygon id="XMLID_28_" style="fill:#A9A9A9;stroke:#FB9437;stroke-width:6;stroke-linecap:round;stroke-linejoin:round;stroke-miterlimit:10;" points="
		485.77,661.268 453.336,661.268 453.336,628.599 469.553,610.317 485.77,628.599 	"/>
	
		<line id="XMLID_27_" style="fill:#A9A9A9;stroke:#FB9437;stroke-width:6;stroke-linecap:round;stroke-linejoin:round;stroke-miterlimit:10;" x1="469.553" y1="551.277" x2="469.553" y2="610.317"/>
</g>
<path id="XMLID_26_" style="opacity:0.4;fill:#FDBA61;" d="M370.125,608.577v-57.3h-60.751v57.3
	c0,58.623,47.523,106.147,106.147,106.147h0c10.557,0,20.751-1.549,30.375-4.418C402.076,697.239,370.125,656.643,370.125,608.577z"
	/>
<path id="XMLID_25_" style="opacity:0.4;fill:#FDBA61;" d="M341.189,608.577v-57.3h-31.815v57.3
	c0,58.623,47.523,106.147,106.147,106.147h0c5.407,0,10.718-0.407,15.908-1.187C380.351,705.86,341.189,661.793,341.189,608.577z"/>
<rect id="XMLID_30_" x="309.374" y="552.093" style="opacity:0.7;fill:#FFCB92;" width="212.293" height="7.078"/>
<path id="XMLID_1_" style="fill:none;stroke:#474747;stroke-width:6;stroke-linecap:round;stroke-linejoin:round;stroke-miterlimit:10;" d="
	M415.52,714.723L415.52,714.723c-58.623,0-106.147-47.523-106.147-106.147v-57.3h212.293v57.3
	C521.667,667.2,474.143,714.723,415.52,714.723z"/>
<polygon id="XMLID_21_" style="fill:#D51C29;" points="479.77,655.268 447.336,655.268 447.336,622.599 463.553,604.317 
	479.77,622.599 "/>
<polygon id="XMLID_9_" style="fill:#6AB36F;stroke:#474747;stroke-width:6;stroke-linecap:round;stroke-linejoin:round;stroke-miterlimit:10;" points="
	479.77,655.268 447.336,655.268 447.336,622.599 463.553,604.317 479.77,622.599 "/>
<polygon id="XMLID_36_" style="opacity:0.5;fill:#6AB36F;" points="453.336,628.599 469.214,610.699 463.553,604.317 
	447.336,622.599 447.336,655.268 453.336,655.268 "/>
<line id="XMLID_12_" style="fill:none;stroke:#474747;stroke-width:6;stroke-linecap:round;stroke-linejoin:round;stroke-miterlimit:10;" x1="463.553" y1="551.277" x2="463.553" y2="604.317"/>
<path id="XMLID_13_" style="fill:none;stroke:#474747;stroke-width:6;stroke-linecap:round;stroke-linejoin:round;stroke-miterlimit:10;" d="
	M405.111,387.83c-7.831,11.17-12.396,29.734-12.182,40.023c0.793,38.034,26.3,38.059,30.525,64.147
	c1.118,6.903-1.083,18.021-7.933,35.737"/>
<path id="XMLID_14_" style="fill:none;stroke:#474747;stroke-width:6;stroke-linecap:round;stroke-linejoin:round;stroke-miterlimit:10;" d="
	M435.03,422.233c-2.878,5.405-7.698,18.267,10.426,39.767c19.595,23.245,14.968,47,8.742,65.737"/>
<path id="XMLID_15_" style="fill:none;stroke:#474747;stroke-width:6;stroke-linecap:round;stroke-linejoin:round;stroke-miterlimit:10;" d="
	M356.392,431.958c-10.612,25.375,5.142,42.266,22.589,60.623c13.705,14.419-0.122,37.739-4.636,42.479"/>
<line id="XMLID_16_" style="fill:none;stroke:#474747;stroke-width:6;stroke-linecap:round;stroke-linejoin:round;stroke-miterlimit:10;" x1="502.602" y1="569.971" x2="502.602" y2="610.785"/>
<polygon id="XMLID_33_" style="fill:none;stroke:#474747;stroke-width:6;stroke-linecap:round;stroke-linejoin:round;stroke-miterlimit:10;" points="
	479.77,655.268 447.336,655.268 447.336,622.599 463.553,604.317 479.77,622.599 "/>
</svg>
