<?xml version="1.0" encoding="iso-8859-1"?>
<!-- Generator: Adobe Illustrator 23.0.2, SVG Export Plug-In . SVG Version: 6.00 Build 0)  -->
<svg version="1.1" id="Layer_1" xmlns="http://www.w3.org/2000/svg" xmlns:xlink="http://www.w3.org/1999/xlink" x="0px" y="0px"
	 viewBox="0 0 1000 1000" style="enable-background:new 0 0 1000 1000;" xml:space="preserve">
<g id="XMLID_11_" style="opacity:0.15;">
	
		<line id="XMLID_73_" style="fill:none;stroke:#474747;stroke-width:6;stroke-linecap:round;stroke-linejoin:round;stroke-miterlimit:10;" x1="169" y1="748.723" x2="831" y2="748.723"/>
	<g id="XMLID_10_">
		
			<line id="XMLID_3_" style="fill:none;stroke:#474747;stroke-width:6;stroke-linecap:round;stroke-linejoin:round;stroke-miterlimit:10;" x1="732.524" y1="748.723" x2="732.524" y2="423.427"/>
		
			<path id="XMLID_2_" style="fill:none;stroke:#474747;stroke-width:6;stroke-linecap:round;stroke-linejoin:round;stroke-miterlimit:10;" d="
			M758.592,335.112c24.275,31.531,87.366,232.923-26.068,232.923s-50.343-201.392-26.068-232.923
			c8.481-11.015,18.382-15.783,26.068-15.783S750.111,324.096,758.592,335.112z"/>
		
			<line id="XMLID_7_" style="fill:none;stroke:#474747;stroke-width:6;stroke-linecap:round;stroke-linejoin:round;stroke-miterlimit:10;" x1="732.524" y1="473.456" x2="757.722" y2="448.258"/>
		
			<line id="XMLID_8_" style="fill:none;stroke:#474747;stroke-width:6;stroke-linecap:round;stroke-linejoin:round;stroke-miterlimit:10;" x1="732.524" y1="532.166" x2="698.245" y2="497.887"/>
		<circle id="XMLID_12_" style="fill:#FFFFFF;" cx="815.662" cy="557.071" r="49.387"/>
		
			<circle id="XMLID_4_" style="fill:none;stroke:#474747;stroke-width:6;stroke-linecap:round;stroke-linejoin:round;stroke-miterlimit:10;" cx="815.662" cy="557.071" r="49.387"/>
		
			<line id="XMLID_9_" style="fill:none;stroke:#474747;stroke-width:6;stroke-linecap:round;stroke-linejoin:round;stroke-miterlimit:10;" x1="732.524" y1="640.275" x2="823.889" y2="548.91"/>
		
			<line id="XMLID_14_" style="fill:none;stroke:#474747;stroke-width:6;stroke-linecap:round;stroke-linejoin:round;stroke-miterlimit:10;" x1="825.822" y1="586.075" x2="786.723" y2="586.075"/>
		
			<line id="XMLID_15_" style="fill:none;stroke:#474747;stroke-width:6;stroke-linecap:round;stroke-linejoin:round;stroke-miterlimit:10;" x1="806.273" y1="566.526" x2="806.273" y2="548.91"/>
		
			<line id="XMLID_16_" style="fill:none;stroke:#474747;stroke-width:6;stroke-linecap:round;stroke-linejoin:round;stroke-miterlimit:10;" x1="732.524" y1="699.751" x2="650.464" y2="617.691"/>
		
			<ellipse id="XMLID_13_" transform="matrix(0.7983 -0.6022 0.6022 0.7983 -241.9206 524.1381)" style="fill:none;stroke:#474747;stroke-width:6;stroke-linecap:round;stroke-linejoin:round;stroke-miterlimit:10;" cx="661.622" cy="623.277" rx="42.31" ry="57.509"/>
		
			<line id="XMLID_79_" style="fill:none;stroke:#474747;stroke-width:6;stroke-linecap:round;stroke-linejoin:round;stroke-miterlimit:10;" x1="691.794" y1="659.022" x2="691.794" y2="632.537"/>
		
			<line id="XMLID_80_" style="fill:none;stroke:#474747;stroke-width:6;stroke-linecap:round;stroke-linejoin:round;stroke-miterlimit:10;" x1="650.464" y1="638.001" x2="670.774" y2="638.001"/>
		
			<rect id="XMLID_86_" x="238.371" y="689.925" style="fill:none;stroke:#474747;stroke-width:6;stroke-linecap:round;stroke-linejoin:round;stroke-miterlimit:10;" width="22.304" height="55.178"/>
		
			<rect id="XMLID_85_" x="468.972" y="689.925" style="fill:none;stroke:#474747;stroke-width:6;stroke-linecap:round;stroke-linejoin:round;stroke-miterlimit:10;" width="22.304" height="55.178"/>
		
			<rect id="XMLID_84_" x="252.747" y="546.455" style="fill:none;stroke:#474747;stroke-width:6;stroke-linecap:round;stroke-linejoin:round;stroke-miterlimit:10;" width="15.613" height="118.298"/>
		
			<rect id="XMLID_83_" x="461.287" y="546.455" style="fill:none;stroke:#474747;stroke-width:6;stroke-linecap:round;stroke-linejoin:round;stroke-miterlimit:10;" width="15.613" height="118.298"/>
		<rect id="XMLID_89_" x="201.804" y="564.531" style="fill:#FFFFFF;" width="312.251" height="33.456"/>
		
			<rect id="XMLID_82_" x="201.804" y="564.531" style="fill:none;stroke:#474747;stroke-width:6;stroke-linecap:round;stroke-linejoin:round;stroke-miterlimit:10;" width="312.251" height="33.456"/>
		<rect id="XMLID_88_" x="201.804" y="597.987" style="fill:#FFFFFF;" width="312.251" height="33.456"/>
		
			<rect id="XMLID_81_" x="201.804" y="597.987" style="fill:none;stroke:#474747;stroke-width:6;stroke-linecap:round;stroke-linejoin:round;stroke-miterlimit:10;" width="312.251" height="33.456"/>
		
			<circle id="XMLID_77_" style="fill:none;stroke:#474747;stroke-width:6;stroke-linecap:round;stroke-linejoin:round;stroke-miterlimit:10;" cx="469.093" cy="582.488" r="4.461"/>
		
			<circle id="XMLID_91_" style="fill:none;stroke:#474747;stroke-width:6;stroke-linecap:round;stroke-linejoin:round;stroke-miterlimit:10;" cx="469.093" cy="614.715" r="4.461"/>
		
			<circle id="XMLID_93_" style="fill:none;stroke:#474747;stroke-width:6;stroke-linecap:round;stroke-linejoin:round;stroke-miterlimit:10;" cx="260.554" cy="582.488" r="4.461"/>
		
			<circle id="XMLID_92_" style="fill:none;stroke:#474747;stroke-width:6;stroke-linecap:round;stroke-linejoin:round;stroke-miterlimit:10;" cx="260.554" cy="614.715" r="4.461"/>
		
			<rect id="XMLID_87_" x="185.763" y="664.753" style="fill:none;stroke:#474747;stroke-width:6;stroke-linecap:round;stroke-linejoin:round;stroke-miterlimit:10;" width="353.513" height="25.171"/>
	</g>
</g>
<g>
	<path id="XMLID_104_" style="fill:#D6D6D4;" d="M421.997,712.62l3.958,28.623c0.592,4.282,4.596,7.481,9.368,7.481H563.5
		c4.772,0,8.776-3.199,9.368-7.481l3.958-28.623H421.997z"/>
	<path id="XMLID_74_" style="fill:#BABABA;" d="M560.739,748.723l9.33-2.412l6.757-33.691H421.997l1.521,11.001h127.797
		c0.068,0,0.136,0,0.204,0C569.791,723.621,560.739,748.723,560.739,748.723z"/>
	<path id="XMLID_103_" style="fill:#5EB173;" d="M592.342,702.936l34.962-279.51H371.52l34.962,279.51
		c0.693,5.542,5.464,9.684,11.162,9.684h163.536C586.877,712.62,591.648,708.478,592.342,702.936z"/>
	<path id="XMLID_75_" style="fill:#5EB173;" d="M592.342,702.936l34.962-279.51H371.52l34.962,279.51
		c0.693,5.542,5.464,9.684,11.162,9.684h163.536C586.877,712.62,591.648,708.478,592.342,702.936z"/>
	<g id="XMLID_30_">
		<path id="XMLID_134_" style="opacity:0.34;fill:#60A06C;" d="M492.295,652.194c-2.53,0-4.385-1.293-5.065-1.85
			c-2.173-1.779-3.5-4.846-3.64-8.413c-0.175-4.43,1.411-8.696,4.241-11.412c0.761-0.729,3.074-2.951,6.087-2.951
			c0.313,0,0.627,0.024,0.935,0.073c1.965,0.312,3.811,1.644,5.197,3.75c2.156,3.276,2.929,7.828,1.968,11.598
			c-1.111,4.356-4.819,9.063-9.505,9.202L492.295,652.194z M493.285,638.439c-0.869,2.076-0.67,3.428-0.421,3.655
			c0.022,0.02,0.055,0.042,0.089,0.062c0.115-0.127,0.315-0.409,0.494-0.91C493.777,640.324,493.582,639.193,493.285,638.439z"/>
		<path id="XMLID_19_" style="opacity:0.34;fill:#60A06C;" d="M503.92,664.587c-1.328,0-2.582-0.371-3.626-1.072
			c-2.239-1.505-2.073-3.476-1.455-10.806c0.391-4.641,0.982-11.654,1.479-22.706c0.025-0.563,0.059-1.127,0.1-1.687
			c-0.064-0.001-0.128-0.002-0.191-0.002c-0.235,0-0.463,0.01-0.682,0.03c-0.794,0.074-1.59,0.106-2.386,0.137
			c-0.864,0.033-1.681,0.065-2.479,0.155c-0.334,0.038-0.63,0.075-0.891,0.108c-0.624,0.079-1.075,0.136-1.506,0.136
			c-0.896,0-1.626-0.287-2.169-0.854c-2.06-2.146,0.197-6.628,1.934-8.328c1.359-1.332,3.253-2.007,5.629-2.007
			c1.321,0,2.835,0.207,4.592,0.629c1.12-3.178,2.707-5.49,4.732-6.89c0.824-0.569,3.013-2.082,5.918-2.082
			c0.399,0,0.802,0.029,1.195,0.088c0.624,0.093,2.522,0.375,4.073,1.938c1.53,1.543,1.908,3.45,1.931,4.887
			c0.763-0.264,1.647-0.454,2.623-0.454c0.359,0,0.72,0.027,1.072,0.079c0.565,0.085,2.276,0.341,3.681,1.755
			c2.319,2.34,1.716,5.596,1.571,6.225l-0.393,1.708c0.326-0.139,0.604-0.318,0.834-0.541c0.604-0.581,0.965-1.516,1.072-2.778
			l0.35-4.108l5.143,4.809l0.161,0.323c0.9,1.802,0.294,4.13-1.752,6.733c-1.503,1.917-4.387,2.85-8.816,2.85
			c-1.332,0-2.794-0.085-4.365-0.252c-0.606,4.906-0.479,10.265-0.478,10.325c0.053,2.035,0.113,3.852,0.168,5.474
			c0.297,8.869,0.42,12.54-2.441,14.638c-1.008,0.739-2.287,1.146-3.602,1.146c0,0,0,0-0.001,0c-1.203,0-2.341-0.337-3.29-0.975
			c-1.003-0.673-1.485-1.429-1.655-2.764c-0.438,1.224-1.107,2.138-2.104,2.867C506.786,664.138,505.373,664.587,503.92,664.587z
			 M510.724,630.543c-0.443,5.005-0.329,9.767-0.328,9.821c0.061,2.347,0.131,4.442,0.193,6.314c0.025,0.77,0.051,1.505,0.072,2.208
			c0.284-3.702,0.608-8.535,0.896-14.931c0.049-1.084,0.126-2.132,0.23-3.134C511.431,630.729,511.076,630.637,510.724,630.543z
			 M523.556,625.561c1.158,0.244,2.157,0.365,3.02,0.365c0.321,0,0.62-0.017,0.898-0.051l-1.299-0.692
			c-0.385-0.205-0.775-0.313-1.131-0.313c-0.084,0-0.172,0.006-0.262,0.02C524.688,624.912,524.148,625.059,523.556,625.561z
			 M513.828,622.339c0.55-1.228,1.198-2.276,1.94-3.14c-0.064-0.005-0.128-0.008-0.191-0.008c-0.123,0-0.252,0.01-0.384,0.031
			c-0.007,0.003-1.013,0.22-1.962,1.252c-0.175,0.19-0.458,0.579-0.779,1.328C512.452,621.803,513.467,622.198,513.828,622.339z"/>
		<path id="XMLID_26_" style="opacity:0.34;fill:#60A06C;" d="M526.506,654.655c-2.287,0-4.263-0.717-5.563-2.019
			c-1.924-1.925-2.551-5.361-1.721-9.428c0.901-4.414,3.826-10.324,9.103-12.45c0.504-0.203,2.308-0.865,4.355-0.865
			c1.912,0,3.531,0.552,4.813,1.64c2.514,2.137,2.936,5.672,2.238,8.227c-0.714,2.611-2.645,4.333-4.826,5.421
			c0.249,0.307,0.477,0.749,0.547,1.372c0.166,1.469-0.581,3.938-2.292,5.618C531.573,653.726,529.087,654.655,526.506,654.655z
			 M531.6,637.829c-0.283,0.103-0.626,0.303-0.984,0.569C531.004,638.211,531.338,638.014,531.6,637.829z"/>
		<path id="XMLID_24_" style="opacity:0.34;fill:#60A06C;" d="M542.602,655.067c-2.348,0-4.57-0.844-5.946-2.257
			c-1.899-1.95-2.541-5.238-1.761-9.021c0.997-4.839,3.984-8.935,7.608-10.434c1.261-0.521,2.781-0.818,4.172-0.818
			c2.266,0,4.116,0.741,5.35,2.144c2.232,2.538,1.423,6.032,1.122,7.042c-0.627,2.106-2.008,3.707-3.693,4.819
			c0.291,0.314,0.573,0.801,0.642,1.528c0.132,1.414-0.585,3.697-2.174,5.144C546.606,654.41,544.717,655.067,542.602,655.067z"/>
		<path id="XMLID_21_" style="opacity:0.34;fill:#60A06C;" d="M469.411,663.021c-1.587,0-3.14-0.228-4.614-0.676
			c-4.954-1.508-8.951-5.592-11.257-11.498c-2.493-6.388-1.745-14.488,1.885-21.77c-1.483,0.289-2.795,1.09-3.979,1.813
			c-1.271,0.777-2.369,1.447-3.618,1.447c-0.685,0-1.332-0.213-1.872-0.618c-1.146-0.854-1.715-2.464-1.602-4.529
			c0.129-2.354,1.226-5.662,3.894-7.234c1.001-0.59,2.173-0.889,3.483-0.889c2.613,0,5.596,1.177,8.706,2.623
			c3.027-3.354,6.5-5.713,10.117-6.858c2.012-0.638,3.994-0.975,5.732-0.975c2.644,0,4.666,0.772,6.012,2.295
			c2.979,3.374,1.628,9.485-1.504,13.075c-1.506,1.728-4.335,3.848-9.256,4.136c-0.268,0.016-0.526,0.023-0.779,0.023
			c-1.948,0-3.519-0.442-5.337-0.955c-0.453-0.128-0.884-0.261-1.297-0.398c-1.938,6.705-1.049,13.858,2.245,16.597
			c1.01,0.84,2.724,1.737,4.505,1.737c0.392,0,0.773-0.044,1.136-0.131c0.113-0.026,2.76-0.683,3.331-2.797
			c0.28-1.039,0.059-2.265-0.539-2.98c-0.421-0.502-1.023-0.747-1.556-0.962c-0.595-0.242-2.176-0.883-2.032-2.575
			c0.161-1.915,2.551-2.787,4.703-2.787c0.61,0,1.201,0.072,1.758,0.216c4.631,1.193,7.977,7.725,6.886,13.438
			c-0.917,4.789-4.546,7.396-5.738,8.252C476.147,661.964,472.804,663.021,469.411,663.021L469.411,663.021z M467.45,625.223
			c1.235,0.643,1.978,0.934,2.844,0.934c0.176,0,0.358-0.012,0.551-0.035c1.724-0.21,3.733-1.24,4.237-2.802
			c0.263-0.812,0.172-1.595,0.037-1.733c-0.038-0.04-0.266-0.151-0.793-0.151c-1.166,0-2.701,0.528-3.705,1.051l-0.145,0.078
			C469.4,623.151,468.375,624.055,467.45,625.223z"/>
	</g>
	<path id="XMLID_72_" style="fill:#60A06C;" d="M371.52,423.426l2.75,21.983h212.762c8.13,0,14.421,7.126,13.412,15.194
		l-22.179,229.98c-0.85,8.819-7.467,15.994-16.188,17.555l-25.047,4.483l35.62,0.024l0.006-0.024h8.524
		c5.698,0,10.469-4.142,11.163-9.684l34.962-279.51H371.52z"/>
	
		<path id="XMLID_63_" style="fill:none;stroke:#474747;stroke-width:6;stroke-linecap:round;stroke-linejoin:round;stroke-miterlimit:10;" d="
		M421.997,712.62l3.958,28.623c0.592,4.282,4.596,7.481,9.368,7.481H563.5c4.772,0,8.776-3.199,9.368-7.481l3.958-28.623H421.997z"
		/>
	
		<path id="XMLID_59_" style="fill:none;stroke:#474747;stroke-width:6;stroke-linecap:round;stroke-linejoin:round;stroke-miterlimit:10;" d="
		M592.342,702.936l34.962-279.51H371.52l34.962,279.51c0.693,5.542,5.464,9.684,11.162,9.684h163.536
		C586.877,712.62,591.648,708.478,592.342,702.936z"/>
	<path id="XMLID_108_" style="fill:#646464;" d="M632.808,423.426c-88.931,0-177.862,0-266.793,0
		c-8.69,0.079-7.494-4.586-4.483-13.542c1.794-5.264,1.794-10.977,0-16.241c-3.011-8.956-4.207-13.621,4.483-13.542
		c88.931,0,177.862,0,266.793,0c8.69-0.079,7.494,4.586,4.483,13.542c-1.794,5.264-1.794,10.977,0,16.241
		C640.302,418.84,641.498,423.505,632.808,423.426z"/>
	<g>
		<path style="fill:#7C7C7C;" d="M637.291,393.643c1.944-5.783,3.127-9.774,1.385-11.856c-0.375,1.317-0.85,2.769-1.385,4.36
			c-1.307,3.834-1.65,7.905-1.053,11.869C636.46,396.537,636.803,395.073,637.291,393.643z"/>
		<path style="fill:#7C7C7C;" d="M362.585,398.015c0.597-3.963,0.254-8.035-1.053-11.869c-0.535-1.59-1.01-3.043-1.385-4.36
			c-1.742,2.083-0.559,6.074,1.385,11.856C362.02,395.073,362.362,396.537,362.585,398.015z"/>
		<path style="fill:#7C7C7C;" d="M638.676,414.244c-0.956,1.143-2.789,1.713-5.868,1.685c-88.931,0-177.862,0-266.793,0
			c-3.079,0.028-4.912-0.542-5.868-1.685c-1.737,6.1-1.279,9.247,5.868,9.182c88.931,0,177.862,0,266.793,0
			C639.955,423.491,640.413,420.344,638.676,414.244z"/>
	</g>
	<g id="XMLID_68_">
		<path id="XMLID_69_" style="fill:#646464;" d="M637.291,409.884c-0.163-0.479-0.295-0.965-0.428-1.451
			c-1.295,4.712-1.196,9.704,0.305,14.371C640.889,421.265,639.645,416.886,637.291,409.884z"/>
		<path id="XMLID_70_" style="fill:#646464;" d="M362.862,403.546c1.038-0.43,4.91-10.105,10.895-10.105
			c88.931,0,164.615,0,253.546,0c7.239,0,8.52,14.562,9.559,14.992c0.045-0.139,0.381-14.652,0.428-14.79
			c3.013-8.963,4.209-13.628-4.503-13.541c-88.847,0.001-177.655,0.002-266.502,0.004c-8.985-0.178-7.795,4.49-4.753,13.538
			C361.58,393.782,362.818,403.408,362.862,403.546z"/>
		<path id="XMLID_71_" style="fill:#646464;" d="M361.656,422.804c1.5-4.667,1.6-9.659,0.305-14.371
			c-0.134,0.486-0.265,0.972-0.428,1.451C359.178,416.886,357.934,421.265,361.656,422.804z"/>
	</g>
	
		<path id="XMLID_44_" style="fill:none;stroke:#474747;stroke-width:6;stroke-linecap:round;stroke-linejoin:round;stroke-miterlimit:10;" d="
		M632.808,423.426c-88.931,0-177.862,0-266.793,0c-8.69,0.079-7.494-4.586-4.483-13.542c1.794-5.264,1.794-10.977,0-16.241
		c-3.011-8.956-4.207-13.621,4.483-13.542c88.931,0,177.862,0,266.793,0c8.69-0.079,7.494,4.586,4.483,13.542
		c-1.794,5.264-1.794,10.977,0,16.241C640.302,418.84,641.498,423.505,632.808,423.426z"/>
	<path id="XMLID_106_" style="fill:#D6D6D4;" d="M625.065,380.102H373.758l2.46-8.768c3.925-13.988,17.293-23.725,32.572-23.725
		h181.243c15.28,0,28.647,9.737,32.572,23.725L625.065,380.102z"/>
	<path id="XMLID_66_" style="fill:#D6D6D4;" d="M625.065,380.102H373.758l2.46-8.768c3.925-13.988,17.293-23.725,32.572-23.725
		h181.243c15.28,0,28.647,9.737,32.572,23.725L625.065,380.102z"/>
	<path id="XMLID_76_" style="fill:#FFFFFF;" d="M426.494,357.963l171.483-0.052c12.4,0,20.04,8.931,23.451,10.025
		c-6.051-9.087-19.595-20.327-31.395-20.327H408.79c-15.279,0-28.647,9.737-32.572,23.725l-2.46,8.768h21.795
		C400.812,368.54,412.893,357.963,426.494,357.963z"/>
	
		<path id="XMLID_43_" style="fill:none;stroke:#474747;stroke-width:6;stroke-linecap:round;stroke-linejoin:round;stroke-miterlimit:10;" d="
		M625.065,380.102H373.758l2.46-8.768c3.925-13.988,17.293-23.725,32.572-23.725h181.243c15.28,0,28.647,9.737,32.572,23.725
		L625.065,380.102z"/>
	<path id="XMLID_107_" style="fill:#D6D6D4;" d="M575.571,347.609h-68.604v-6.405c0-7.429,6.023-13.452,13.452-13.452h41.7
		c7.429,0,13.452,6.023,13.452,13.452V347.609z"/>
	<path id="XMLID_67_" style="fill:#D6D6D4;" d="M575.571,347.609h-68.604v-6.405c0-7.429,6.023-13.452,13.452-13.452h41.7
		c7.429,0,13.452,6.023,13.452,13.452V347.609z"/>
	<path id="XMLID_78_" style="fill:#FFFFFF;" d="M507.083,347.394c0-7.079,5.738-12.817,12.817-12.817h42.969
		c6.524,0,11.898,4.878,12.702,11.184v-5.191c0-7.079-5.739-12.817-12.817-12.817h-42.969c-7.079,0-12.817,5.738-12.817,12.817v7.04
		h0.115V347.394z"/>
	<path id="XMLID_32_" style="fill:#60A06C;" d="M491.275,582.407c-10.623,0-29.761-7.5-35.939-27.617
		c-6.019-16.413-3.447-35.65,6.716-50.219c7.38-10.578,17.475-16.646,27.695-16.646c3.122,0,6.23,0.569,9.239,1.691l0.147,0.056
		l0.138,0.077c2.126,1.202,3.34,2.609,3.711,4.305c0.633,2.89-1.327,5.605-3.81,9.044c-4.979,6.9-11.8,16.35-5.097,33.79
		c7.768,20.214,7.811,39.389,2.991,43.955C495.97,581.882,494.022,582.407,491.275,582.407z"/>
	
		<path id="XMLID_42_" style="fill:none;stroke:#474747;stroke-width:6;stroke-linecap:round;stroke-linejoin:round;stroke-miterlimit:10;" d="
		M575.571,347.609h-68.604v-6.405c0-7.429,6.023-13.452,13.452-13.452h41.7c7.429,0,13.452,6.023,13.452,13.452V347.609z"/>
	<path id="XMLID_31_" style="fill:#60A06C;" d="M518.773,582.144c-3.896,0-7.532-1.498-9.978-4.11
		c-2.147-2.294-3.218-5.249-3.016-8.322c0.527-7.979-2.195-15.612-4.828-22.993c-2.4-6.729-4.668-13.086-4.684-19.705
		c-0.058-24.364,16.286-32.086,18.304-32.945c1.291-0.775,2.763-1.168,4.376-1.168c6.501,0,14.47,6.396,20.3,16.294
		c3.892,6.606,15.418,30.275,0.339,57.481C534.138,576.507,526.552,582.144,518.773,582.144L518.773,582.144z"/>
	<path id="XMLID_33_" style="fill:#F6F9E4;" d="M499.286,488.491c11.792,6.666-18.084,14.876-6.078,46.116
		c8.198,21.334,6.998,38.454,3.482,41.785s-30.944-0.647-38.459-25.24C445.827,517.437,472.795,478.607,499.286,488.491z"/>
	<path id="XMLID_27_" style="fill:#F6F9E4;" d="M516.484,492.856c0,0-17.273,6.811-17.216,31.153
		c0.032,13.609,10.535,27.259,9.507,42.835c-0.714,10.819,17.813,17.962,30.061-4.138
		C560.419,523.765,528.431,485.311,516.484,492.856z"/>
	<g id="XMLID_102_">
		<path id="XMLID_39_" style="fill:#F6F9E4;" d="M488.216,629.963c-4.61,4.424-4.828,13.471-0.719,16.834
			c0.295,0.241,1.839,1.458,3.957,1.395c3.794-0.113,6.748-4.254,7.626-7.698c1.375-5.393-1.53-12.242-5.54-12.878
			C491.068,627.225,488.897,629.309,488.216,629.963z M494.331,639.919c-0.105,0.295-0.742,2.079-2.086,2.266
			c-0.896,0.125-1.632-0.526-1.727-0.612c-1.212-1.104-1.136-3.63,0.108-6.331c0.771-1.226,1.356-1.468,1.763-1.439
			C493.776,633.904,495.255,637.328,494.331,639.919z"/>
		<path id="XMLID_38_" style="fill:#F6F9E4;" d="M500.41,659.854c-2.133-1.433-0.315-4.573,0.906-31.761
			c0.337-7.5,1.91-14.311,5.822-17.016c0.774-0.535,2.983-2.063,5.682-1.662c0.572,0.085,1.887,0.299,2.947,1.368
			c1.876,1.892,1.268,4.762,1.204,5.042c-0.593-0.316-1.736-0.803-3.105-0.576c0,0-1.635,0.272-3.105,1.87
			c-3.805,4.136-3.364,21.295-3.364,21.295c0.366,14.262,1.096,19.257-1.682,21.295C504.265,660.773,502.006,660.926,500.41,659.854
			z"/>
		<path id="XMLID_37_" style="fill:#F6F9E4;" d="M511.77,659.559c-1.848-1.241-0.273-3.961,0.785-27.513
			c0.292-6.497,1.655-12.397,5.044-14.74c0.671-0.464,2.584-1.787,4.922-1.439c0.496,0.074,1.635,0.259,2.553,1.185
			c1.625,1.639,1.098,4.125,1.043,4.368c-0.513-0.273-1.504-0.696-2.69-0.499c0,0-1.416,0.235-2.69,1.62
			c-3.296,3.583-2.914,18.446-2.914,18.446c0.317,12.355,0.95,16.681-1.457,18.447C515.11,660.355,513.153,660.487,511.77,659.559z"
			/>
		<path id="XMLID_36_" style="fill:#F6F9E4;" d="M528.647,646.442c-0.857,0.222-2.135,0.225-2.974-0.384
			c-2.094-1.52-1.435-6.847,1.247-9.88c0.374-0.423,2.749-3.02,4.796-2.302c0.618,0.217,1.384,0.797,1.439,1.535
			c0.123,1.653-3.365,3.606-6.523,3.837c-1.736,0.127-3.142-0.284-3.933-0.576c-0.925,1.292-0.779,2.08-0.672,2.398
			c0.645,1.915,4.93,1.754,5.512,1.727c0.373-0.018,7.872-0.479,9.26-5.563c0.526-1.926,0.207-4.637-1.604-6.175
			c-2.573-2.185-6.578-0.664-7.125-0.443c-7.053,2.841-10.345,14.975-6.714,18.609c2.114,2.115,7.048,1.83,9.4-0.48
			c1.602-1.573,1.994-4.072,1.542-4.351C531.87,644.129,530.857,645.87,528.647,646.442z"/>
		<path id="XMLID_35_" style="fill:#F6F9E4;" d="M543.697,647.687c-0.763,0.197-1.899,0.2-2.645-0.341
			c-1.876-1.362-1.133-6.051,1.109-8.789c0.345-0.421,2.007-2.451,3.369-1.995c0.662,0.222,1.177,1.007,1.151,1.727
			c-0.058,1.592-2.76,2.785-4.776,2.999c-1.535,0.163-2.792-0.228-3.499-0.512c-0.823,1.149-0.693,1.85-0.597,2.133
			c0.501,1.489,3.439,1.651,4.904,1.536c2.62-0.205,6.465-1.759,7.517-5.293c0.133-0.446,0.927-3.294-0.706-5.15
			c-1.753-1.993-5.239-1.631-7.255-0.797c-5.85,2.419-8.643,12.654-5.18,16.211c1.983,2.037,6.369,2.245,8.486,0.32
			c1.46-1.327,1.784-3.617,1.372-3.87C546.564,645.63,545.662,647.178,543.697,647.687z"/>
		<path id="XMLID_34_" style="fill:#F6F9E4;" d="M531.572,620.425c-0.106,1.252-0.466,2.885-1.678,4.05
			c-6.882,6.618-30.724-11.928-37.447-5.348c-1.454,1.424-2.734,4.636-1.89,5.516c0.387,0.403,1.055,0.215,2.897,0.007
			c1.626-0.184,3.271-0.143,4.9-0.296c3.984-0.375,10.063,2.017,16.386,3.355c1.592,0.337,14.158,2.906,17.167-0.931
			c0.379-0.484,2.343-2.988,1.535-4.604l0,0C532.82,621.591,532.196,621.008,531.572,620.425z"/>
		<path id="XMLID_25_" style="fill:#F6F9E4;" d="M461.598,622.941c4.265,2.069,5.693,3.506,8.489,3.165
			c2.219-0.27,5.079-1.633,5.899-4.173c0.325-1.005,0.514-2.767-0.432-3.741c-1.442-1.486-4.9-0.5-6.857,0.52
			c0,0-0.107,0.057-0.193,0.104c-8.657,4.721-11.41,23.533-4.412,29.352c1.755,1.46,4.616,2.678,7.386,2.014
			c0.404-0.097,3.934-1.031,4.796-4.221c0.426-1.577,0.142-3.495-0.935-4.784c-1.284-1.537-3.174-1.557-3.129-2.086
			c0.046-0.548,2.131-1.277,3.969-0.803c3.554,0.916,6.33,6.367,5.42,11.127c-0.766,4.006-3.904,6.259-4.94,7.002
			c-3.586,2.574-8.288,3.229-12.278,2.014c-6.754-2.055-9.409-8.86-9.976-10.312c-4.906-12.568,4.327-29.761,15.755-33.381
			c0.842-0.267,7.023-2.225,9.641,0.739c2.228,2.522,0.974,7.586-1.512,10.436c-2.751,3.154-6.833,3.393-7.866,3.453
			c-1.995,0.117-3.471-0.3-5.468-0.863c-5.1-1.44-5.434-3.034-8.249-3.453c-5.411-0.806-8.772,4.4-10.551,3.07
			c-1.576-1.179-0.856-6.693,2.11-8.441C451.242,617.924,456.022,620.236,461.598,622.941z"/>
	</g>
	
		<path id="XMLID_125_" style="fill:none;stroke:#474747;stroke-width:6;stroke-linecap:round;stroke-linejoin:round;stroke-miterlimit:10;" d="
		M576.662,202.376c-7.755,10.867-16.411,13.625-22.95,26.258c-1.805,3.486-7.106,13.728-5.5,26c2.126,16.244,14.308,20.401,15.5,35
		c0.542,6.638-1.253,14.636-8,24"/>
	
		<path id="XMLID_62_" style="fill:none;stroke:#474747;stroke-width:6;stroke-linecap:round;stroke-linejoin:round;stroke-miterlimit:10;" d="
		M601.711,151.134c6.106,25.319,1.721,40.904-3.5,50.5c-9.524,17.505-26.829,24.267-28,41.889c-0.553,8.32,2.739,15.314,5.36,19.668
		"/>
	
		<path id="XMLID_6_" style="fill:none;stroke:#474747;stroke-width:6;stroke-linecap:round;stroke-linejoin:round;stroke-miterlimit:10;" d="
		M544.378,211.134c0,0-12,14-12,26.667"/>
</g>
</svg>
