<svg xmlns="http://www.w3.org/2000/svg" width="64" height="64" enable-background="new 0 0 64 64" viewBox="0 0 64 64"><rect width="56.25" height="11.75" x="4" y="30" fill="#282828"/><rect width="53.875" height="3.125" x="4.938" y="38.875" fill="#4a4949"/><circle cx="16.25" cy="40.5" r="6.5" fill="#282828"/><circle cx="49" cy="40.5" r="6.5" fill="#282828"/><circle cx="49.223" cy="40.411" r="4.527" fill="#4a4949" opacity=".8"/><circle cx="15.777" cy="40.411" r="4.527" fill="#4a4949" opacity=".8"/><polygon fill="#a3a2a2" points="60.25 30 39 30 38.75 17.25 50.75 16.5"/><rect width="13.188" height="3.125" x="39.188" y="17.563" fill="#4a4949"/><path d="M42.871 42.558h-20.64c-.552 0-1-.448-1-1s.448-1 1-1h20.64c.552 0 1 .448 1 1S43.423 42.558 42.871 42.558zM59.501 42.558h-4.01c-.552 0-1-.448-1-1s.448-1 1-1h4.01c.552 0 1 .448 1 1S60.053 42.558 59.501 42.558zM9.602 42.558H4.501c-.552 0-1-.448-1-1v-11.23c0-.552.448-1 1-1s1 .448 1 1v10.23h4.101c.552 0 1 .448 1 1S10.154 42.558 9.602 42.558zM39.241 31.328c-.552 0-1-.448-1-1v-13.14c0-.552.448-1 1-1s1 .448 1 1v13.14C40.241 30.88 39.793 31.328 39.241 31.328z"/><path d="M59.501,42.558c-0.552,0-1-0.448-1-1V29.966l-8.049-11.828H39.241c-0.552,0-1-0.448-1-1s0.448-1,1-1h11.74
					c0.331,0,0.641,0.164,0.827,0.438l8.52,12.52c0.113,0.166,0.173,0.362,0.173,0.563v11.9
					C60.501,42.11,60.053,42.558,59.501,42.558z"/><path d="M59.499 31.332h-55c-.552 0-1-.448-1-1s.448-1 1-1h55c.552 0 1 .448 1 1S60.051 31.332 59.499 31.332zM15.913 47.862c-4.089 0-7.415-3.326-7.415-7.415 0-4.088 3.326-7.414 7.415-7.414 4.088 0 7.414 3.326 7.414 7.414C23.327 44.536 20.001 47.862 15.913 47.862zM15.913 35.033c-2.986 0-5.415 2.429-5.415 5.414 0 2.986 2.429 5.415 5.415 5.415 2.985 0 5.414-2.429 5.414-5.415C21.327 37.462 18.898 35.033 15.913 35.033zM49.181 47.862c-4.087 0-7.413-3.326-7.413-7.415 0-4.088 3.326-7.414 7.413-7.414 4.088 0 7.414 3.326 7.414 7.414C56.595 44.536 53.269 47.862 49.181 47.862zM49.181 35.033c-2.985 0-5.413 2.429-5.413 5.414 0 2.986 2.428 5.415 5.413 5.415 2.985 0 5.414-2.429 5.414-5.415C54.595 37.462 52.166 35.033 49.181 35.033z"/></svg>